<?xml version="1.0" encoding="UTF-8"?>
<svg width="94px" height="32px" viewBox="0 0 94 32" version="1.1" xmlns="http://www.w3.org/2000/svg" xmlns:xlink="http://www.w3.org/1999/xlink">
    <title>华佳Mos</title>
    <g id="后台" stroke="none" stroke-width="1" fill="none" fill-rule="evenodd">
        <g id="浅色-控制台" transform="translate(-403.000000, -614.000000)" fill="#E94709" fill-rule="nonzero">
            <g id="编组" transform="translate(400.000000, 272.000000)">
                <path d="M9.27440731,342 L17.9385749,366.255528 L18.0958231,366.255528 L26.8194546,342 L32.995086,342 L32.995086,374 L28.3955774,374 L28.3955774,351.778457 L28.2383292,351.778457 L19.982801,374 L16.012285,374 L7.75675676,351.778457 L7.5995086,351.778457 L7.5995086,374 L3,374 L3,342 L9.27440731,342 Z M53.5023367,343.950134 L53.5028568,345.960773 C56.9030572,346.166611 59.6894086,347.347237 61.8619108,349.572626 C63.9209539,351.685247 65.0981458,354.305417 65.3599307,357.464867 L67.2681025,357.465672 L67.2681025,359.832253 L65.3874386,359.833313 C65.1931492,363.131437 64.0094366,365.876243 61.9119682,368.031957 C59.7391092,370.257712 56.911263,371.477068 53.5024693,371.690026 L53.5023367,373.984532 L50.9994702,373.984532 L50.9986719,371.669613 C47.6932802,371.407507 45.0017758,370.194955 42.8901827,368.031957 C40.7471171,365.876243 39.6008762,363.131437 39.4136263,359.833313 L37.2337044,359.832253 L37.2337044,357.465672 L39.4401727,357.464867 C39.693069,354.305417 40.8373876,351.685247 42.9402401,349.572626 C44.9251376,347.496149 47.4801111,346.329292 50.6051606,346.015209 L50.998761,345.980386 L50.998761,345.980386 L50.9994702,343.950134 L53.5023367,343.950134 Z M83.4093501,343.950134 C90.9041724,343.950134 95.0373464,346.92602 95.6986543,352.988008 L95.6986543,352.988008 L89.5815567,352.988008 C89.1406848,351.555175 88.479377,350.508104 87.5976332,349.957014 C86.6607804,349.350815 85.2279467,349.07527 83.2991322,349.07527 C81.6458625,349.07527 80.3783558,349.295706 79.551721,349.791687 C78.5597593,350.287668 78.1188874,351.059194 78.1188874,352.161373 C78.1188874,353.043117 78.8353042,353.869752 80.3783558,354.53106 C81.3152086,354.916823 83.1889142,355.467913 86.0545815,356.18433 C89.2509028,356.955855 91.6756982,357.837599 93.2187499,358.88467 C95.4782183,360.317504 96.6355071,362.356536 96.6355071,364.89155 C96.6355071,370.953538 92.3370061,373.984532 83.795113,373.984532 C75.8594189,373.984532 71.6160269,370.622884 71.009828,363.954697 L71.009828,363.954697 L77.1269256,363.954697 C77.4575795,365.773293 78.1188874,367.0408 79.0557401,367.812326 C79.9925929,368.473634 81.4805356,368.859397 83.5746771,368.859397 C87.9833961,368.859397 90.1877556,367.646999 90.1877556,365.332421 C90.1877556,364.009806 89.3611208,362.962735 87.7078511,362.191209 C86.8261073,361.750337 84.9524018,361.254356 82.0867344,360.593049 C78.7250862,359.821523 76.3553998,358.994888 74.9776751,358.113144 C72.7733156,356.735419 71.6711359,354.806605 71.6711359,352.3267 C71.6711359,349.681469 72.7182066,347.642437 74.9225661,346.209603 C77.0718166,344.666551 79.882375,343.950134 83.4093501,343.950134 Z M51.073,367.221 L51.0675077,367.220429 L50.9985959,367.20907 L50.9986719,371.669613 C51.4544385,371.705753 51.9218767,371.723824 52.4010755,371.723824 C52.6501261,371.723824 52.8963255,371.718817 53.1396475,371.708803 L53.5024693,371.690026 L53.5024693,371.690026 L53.502,367.251 L53.8013501,367.206101 C55.4991399,366.911813 56.8761181,366.059068 57.9073818,364.671413 C58.7993489,363.406316 59.36293,361.892815 59.5449298,360.130911 L59.5718169,359.833726 L65.3874386,359.833313 C65.4064434,359.5107 65.4159813,359.182792 65.4159813,358.849624 C65.4159813,358.377008 65.3972653,357.915453 65.3599307,357.464867 L59.5368739,357.464917 L59.5707002,357.830705 C59.4218911,355.908761 58.8467407,354.272443 57.9073818,352.980503 C56.853626,351.52426 55.4389109,350.68857 53.6898048,350.423191 L53.467,350.393 L53.438,350.39 L53.36,350.381 L53.348,350.38 L53.291,350.374 L53.339,350.379 L53.348,350.38 L53.361,350.381 L53.36,350.381 L53.427,350.388 L53.438,350.39 L53.451,350.391 L53.395,350.384 L53.4138177,350.386363 L53.4138177,350.386363 L53.5026717,350.397134 L53.5028568,345.960773 C53.1424914,345.938958 52.775231,345.928092 52.4010755,345.928092 C51.9218767,345.928092 51.4544385,345.945467 50.998761,345.980386 L50.9994,350.437972 C51.028622,350.433199 51.0579501,350.428585 51.0873845,350.42413 L51.094,350.423 L51.1908209,350.40919 L51.1908209,350.40919 L51.225,350.404 L51.24,350.402 L51.249,350.401 L51.263,350.399 L51.251,350.401 L51.249,350.401 L51.244,350.402 L51.24,350.402 L51.233,350.403 L51.225,350.404 L51.094,350.423 L51.233,350.403 L51.2419087,350.402331 L51.244,350.402 L51.265,350.399 L51.268,350.399 L51.28,350.397 L51.265,350.399 L51.263,350.399 L51.28,350.397 L51.2948259,350.395584 L51.2948259,350.395584 L51.372,350.386 L51.389,350.384 L51.3983704,350.383412 L51.268,350.399 L50.9886961,350.439729 C49.2755023,350.722109 47.9275347,351.553267 46.8947692,352.980503 C46.061374,354.126707 45.5433207,355.543975 45.3406092,357.191282 L45.308,357.491 L45.306,357.507 L45.305,357.522 L45.301,357.563 L45.304,357.524 L45.306,357.507 L45.31,357.465 L45.3100969,357.464438 L39.4401727,357.464867 C39.4041058,357.915453 39.3861696,358.377008 39.3861696,358.849624 C39.3861696,359.182792 39.3953101,359.5107 39.4136263,359.833313 L45.2762888,359.833493 C45.2735679,359.794485 45.2710132,359.755348 45.2686247,359.716082 L45.267,359.704 L45.265,359.651 L45.2894616,360.005846 C45.4433405,361.855961 45.978443,363.41115 46.8947692,364.671413 C47.883928,366.002413 49.1622332,366.841289 50.7736362,367.167264 L51.05,367.217 L51.144,367.231 L51.116,367.227 L51.056,367.218 L51.073,367.221 Z" id="华佳Mos"></path>
            </g>
        </g>
    </g>
</svg>