<?xml version="1.0" encoding="UTF-8"?>
<svg width="92px" height="18px" viewBox="0 0 92 18" version="1.1" xmlns="http://www.w3.org/2000/svg" xmlns:xlink="http://www.w3.org/1999/xlink">
    <title>华佳Mos</title>
    <g id="视频监控中心" stroke="none" stroke-width="1" fill="none" fill-rule="evenodd">
        <g id="视频源管理1" transform="translate(-20.000000, -16.000000)" fill="#E85A0B" fill-rule="nonzero">
            <g id="顶部导航">
                <path d="M25.0333717,26.6467204 L25.0333717,16 L23.7652328,16 C22.5638519,18.1127733 22.5270426,18.2621789 20,19.8156887 L20.7042578,22.0320293 C21.4913694,21.5141927 22.2370541,20.9963561 22.9205984,20.457806 L22.9205984,26.6467204 L25.0333717,26.6467204 Z M35.5972382,25.9838895 C36.5293441,25.9838895 37.2336018,25.7974684 37.689298,25.4660529 C38.1449942,25.1139241 38.4971231,23.995397 38.7042578,22.1311853 L36.6743383,21.4683544 C36.5914845,22.7111623 36.4050633,23.456847 36.1565017,23.7054085 C35.9493671,23.9125432 35.6179517,24.0368239 35.1829689,24.0368239 L32.3659379,24.0368239 C31.9102417,24.0368239 31.6823936,23.8504028 31.6823936,23.4775604 L31.6823936,21.9240506 C34.0023015,20.8055236 36.0529344,19.5005754 37.7928654,18.0299194 L36.3429229,16.5178366 C35.1001151,17.6363636 33.5466053,18.6720368 31.6823936,19.6248562 L31.6823936,16 L29.5903337,16 L29.5903337,20.598389 C28.4510932,21.0747986 27.2082854,21.5304948 25.8619102,21.9654776 L27.0632911,23.7675489 C27.9125432,23.4775604 28.7617952,23.1668585 29.5903337,22.835443 L29.5903337,23.9125432 C29.5903337,25.2796318 30.3153049,25.9838895 31.7652474,25.9838895 L35.5972382,25.9838895 Z M65.1678875,17.1392405 L69.7330265,29.9194476 L69.8158803,29.9194476 L74.4123507,17.1392405 L77.6662831,17.1392405 L77.6662831,34 L75.2428078,34 L75.2428078,22.291497 L75.159954,22.291497 L70.8101266,34 L68.7180667,34 L64.3682394,22.291497 L64.2853855,22.291497 L64.2853855,34 L61.8619102,34 L61.8619102,17.1392405 L65.1678875,17.1392405 Z M88.4715275,18.1667638 L88.4712779,19.2261352 C90.2630768,19.3345011 91.7313763,19.9565787 92.8761766,21.1292478 C93.9610183,22.2423175 94.5812698,23.6227827 94.7192538,25.287358 L95.7246921,25.2880838 L95.7246921,26.5350322 L94.7337504,26.535968 C94.6313115,28.2735772 94.0076252,29.7196847 92.9025517,30.8554459 C91.7577222,32.028145 90.267809,32.6706177 88.471819,32.782864 L88.4715275,33.9918501 L87.1527703,33.9918501 L87.152386,32.7721247 C85.4107627,32.6340274 83.9926005,31.9951344 82.879997,30.8554459 C81.7509002,29.7196847 81.146953,28.2735772 81.0482253,26.535968 L79.8996058,26.5350322 L79.8996058,25.2880838 L81.0622152,25.287358 C81.1955146,23.6227827 81.7984487,22.2423175 82.9063722,21.1292478 C83.9277074,20.0607898 85.235504,19.4494131 86.8297619,19.2672222 L87.1524329,19.2364982 L87.1524329,19.2364982 L87.1527703,18.1667638 L88.4715275,18.1667638 Z M104.229495,18.1667638 C108.178507,18.1667638 110.356272,19.734754 110.704714,22.9288082 L110.704714,22.9288082 L107.481623,22.9288082 C107.249328,22.1738499 106.900886,21.6221497 106.436296,21.3317811 C105.94267,21.0123757 105.187711,20.8671914 104.171421,20.8671914 C103.300316,20.8671914 102.632468,20.9833388 102.196915,21.2446705 C101.674252,21.5060022 101.441957,21.9125182 101.441957,22.4932553 C101.441957,22.957845 101.819436,23.3933978 102.632468,23.7418401 C103.126095,23.9450981 104.113348,24.2354667 105.623264,24.6129458 C107.307402,25.0194618 108.585023,25.4840515 109.398055,26.0357517 C110.588566,26.79071 111.19834,27.8650736 111.19834,29.200769 C111.19834,32.3948231 108.933466,33.9918501 104.432753,33.9918501 C100.251446,33.9918501 98.0156079,32.220602 97.6962025,28.7071424 L97.6962025,28.7071424 L100.919294,28.7071424 C101.093515,29.6653587 101.441957,30.3332063 101.935583,30.7397223 C102.42921,31.0881646 103.213205,31.2914226 104.316606,31.2914226 C106.639554,31.2914226 107.801028,30.6526117 107.801028,29.4330638 C107.801028,28.7361793 107.365475,28.184479 106.49437,27.777963 C106.02978,27.5456682 105.042527,27.2843365 103.532611,26.9358942 C101.761362,26.5293783 100.512778,26.0938254 99.7868561,25.6292357 C98.6253819,24.9033143 98.0446448,23.8870244 98.0446448,22.5803659 C98.0446448,21.1865968 98.5963451,20.1122332 99.7578193,19.3572749 C100.890257,18.544243 102.371136,18.1667638 104.229495,18.1667638 Z M30.4188723,26.004603 L30.4188723,27.8066743 L38.4142693,27.8066743 L38.4142693,29.9194476 L30.4188723,29.9194476 L30.4188723,33.8342923 L28.2232451,33.8342923 L28.2232451,29.9194476 L20.2899885,29.9194476 L20.2899885,27.8066743 L28.2232451,27.8066743 L28.2232451,26.004603 L30.4188723,26.004603 Z M53.8250863,16 L53.8250863,18.1749137 L58.2370541,18.1749137 L58.2370541,20.2669735 L53.8250863,20.2669735 L53.8250863,22.6697353 L59.2313003,22.6697353 L59.2313003,24.7825086 L53.8250863,24.7825086 L53.8250863,26.853855 L58.3613349,26.853855 L58.3613349,28.9459148 L53.8250863,28.9459148 L53.8250863,31.721519 L59.5212888,31.721519 L59.5212888,33.8342923 L45.995397,33.8342923 L45.995397,31.721519 L51.6294591,31.721519 L51.6294591,28.9459148 L47.155351,28.9459148 L47.155351,26.853855 L51.6294591,26.853855 L51.6294591,24.7825086 L46.306099,24.7825086 L46.306099,22.6697353 L51.6294591,22.6697353 L51.6294591,20.2669735 L47.3210587,20.2669735 L47.3210587,18.1749137 L51.6294591,18.1749137 L51.6294591,16 L53.8250863,16 Z M44.9390104,16 L44.9597238,33.8342923 L42.7640967,33.8342923 L42.7640967,21.0540852 C42.2747411,21.6340621 41.7986086,21.8651467 41.2709296,22.3440242 L41.0414367,22.566168 L40.3164655,20.2462601 C41.6089856,19.2321289 42.675604,18.5997883 43.3915656,16.2967321 L43.4792254,16 L44.9390104,16 Z M88.362,30.456 L88.355,30.457 L88.35,30.458 L88.362,30.456 L88.367,30.456 L88.372,30.455 L88.4094999,30.4520537 L88.4094999,30.4520537 L88.3413695,30.4594348 L88.324,30.46 L88.346,30.458 L88.355,30.457 L88.365,30.456 L88.372,30.455 L88.374,30.455 L88.5748924,30.4293026 C89.4943803,30.2832044 90.2382393,29.8306396 90.7925402,29.0847791 C91.2523859,28.4325697 91.5465844,27.6550584 91.6488809,26.7522452 L91.6758363,26.4466667 L91.6758363,26.4466667 L91.6694786,26.5364545 L94.7337504,26.535968 C94.7437789,26.3658617 94.7488118,26.1929618 94.7488118,26.0172858 C94.7488118,25.8512019 94.7444252,25.6877104 94.7356673,25.5267968 L94.7192538,25.287358 L94.7192538,25.287358 L91.6510958,25.2874839 L91.6590433,25.3657598 L91.6590433,25.3657598 L91.66,25.376 L91.663,25.41 L91.664915,25.4308675 L91.664915,25.4308675 L91.665,25.438 L91.67,25.492 L91.6701774,25.4966548 L91.672,25.525 L91.672,25.526 L91.6745405,25.5588074 L91.6745405,25.5588074 L91.6698951,25.4929023 L91.6698951,25.4929023 L91.667,25.463 L91.6404701,25.1953367 C91.5310979,24.3052457 91.2403712,23.5407748 90.7925402,22.9248536 C90.2577972,22.1858629 89.546637,21.7501651 88.6715655,21.5941097 L88.463,21.562 L88.4719844,21.5637153 L88.4712779,19.2261352 C88.2815697,19.2146619 88.0882352,19.2089471 87.8912744,19.2089471 C87.6387979,19.2089471 87.3925174,19.2181012 87.1524329,19.2364982 L87.1524911,21.585237 L87.1888602,21.579466 L87.1888602,21.579466 L87.2418835,21.5716601 L87.2418835,21.5716601 L87.266,21.568 L87.2998397,21.5639334 L87.2998397,21.5639334 L87.335,21.559 L87.2953542,21.5645019 C86.3217803,21.6884246 85.5636228,22.1321445 84.9900085,22.9248536 C84.5548187,23.5233888 84.282825,24.2622058 84.1740275,25.1202622 L84.151,25.337 L84.148,25.365 L84.139,25.48 L84.142,25.43 L84.143806,25.4106685 L84.143806,25.4106685 L84.144,25.403 L84.145,25.391 L84.1467237,25.3761694 L84.1467237,25.3761694 L84.155,25.288 L84.1550468,25.2874324 L81.0622152,25.287358 C81.0431955,25.5248669 81.033737,25.76816 81.033737,26.0172858 C81.033737,26.1929618 81.0385602,26.3658617 81.0482253,26.535968 L84.1372627,26.5361074 L84.132,26.446 L84.143806,26.6220558 C84.2243967,27.5988321 84.5064642,28.4197399 84.9900085,29.0847791 C85.4927286,29.761233 86.1371947,30.1964372 86.9441893,30.380566 L87.1529419,30.4219747 L87.1529419,30.4219747 L87.152386,32.7721247 C87.3925174,32.7911652 87.6387979,32.8006855 87.8912744,32.8006855 L88.1841012,32.7962302 L88.1841012,32.7962302 L88.471819,32.782864 L88.471819,32.782864 L88.4719548,30.4442805 L88.4094999,30.4520537 L88.4094999,30.4520537 L88.374,30.455 L88.372,30.455 L88.367,30.456 L88.362,30.456 Z" id="华佳Mos"></path>
            </g>
        </g>
    </g>
</svg>